<svg width="166" height="29" viewBox="0 0 166 29" fill="none" xmlns="http://www.w3.org/2000/svg">
<path d="M13.9278 0.965764C17.7812 0.965764 21.0659 2.32375 23.7819 5.03972C26.4979 7.75569 27.8559 11.0404 27.8559 14.8938C27.8559 18.7472 26.4979 22.0319 23.7819 24.7479C21.0659 27.4639 17.7812 28.8219 13.9278 28.8219H-0.000244141V26.4889H13.9278C16.017 26.4889 17.9553 25.9782 19.7428 24.9568C21.5302 23.9122 22.9346 22.4962 23.956 20.7088C25.0006 18.9213 25.5229 16.983 25.5229 14.8938C25.5229 12.8046 25.0006 10.8663 23.956 9.07885C22.9346 7.29142 21.5302 5.88701 19.7428 4.86562C17.9553 3.82101 16.017 3.29871 13.9278 3.29871H-0.000244141V0.965764H13.9278Z" fill="white"/>
<path d="M38.8938 5.03972C41.6098 2.32375 44.8945 0.965764 48.7479 0.965764C52.6013 0.965764 55.886 2.32375 58.602 5.03972C61.318 7.75569 62.676 11.0404 62.676 14.8938C62.676 18.7472 61.318 22.0319 58.602 24.7479C55.886 27.4639 52.6013 28.8219 48.7479 28.8219C44.8945 28.8219 41.6098 27.4639 38.8938 24.7479C36.1779 22.0319 34.8199 18.7472 34.8199 14.8938C34.8199 11.0404 36.1779 7.75569 38.8938 5.03972ZM42.933 24.9568C44.7204 25.9782 46.6587 26.4889 48.7479 26.4889C50.8371 26.4889 52.7754 25.9782 54.5629 24.9568C56.3503 23.9122 57.7547 22.4962 58.7761 20.7088C59.8207 18.9213 60.343 16.983 60.343 14.8938C60.343 12.8046 59.8207 10.8663 58.7761 9.07885C57.7547 7.29142 56.3503 5.88701 54.5629 4.86562C52.7754 3.82101 50.8371 3.29871 48.7479 3.29871C46.6587 3.29871 44.7204 3.82101 42.933 4.86562C41.1455 5.88701 39.7295 7.29142 38.6849 9.07885C37.6635 10.8663 37.1528 12.8046 37.1528 14.8938C37.1528 16.983 37.6635 18.9213 38.6849 20.7088C39.7295 22.4962 41.1455 23.9122 42.933 24.9568ZM49.9666 13.6751C50.3148 14.0001 50.4889 14.4063 50.4889 14.8938C50.4889 15.3813 50.3148 15.7991 49.9666 16.1473C49.6416 16.4723 49.2354 16.6348 48.7479 16.6348C48.2604 16.6348 47.8426 16.4723 47.4944 16.1473C47.1694 15.7991 47.0069 15.3813 47.0069 14.8938C47.0069 14.4063 47.1694 14.0001 47.4944 13.6751C47.8426 13.3269 48.2604 13.1528 48.7479 13.1528C49.2354 13.1528 49.6416 13.3269 49.9666 13.6751Z" fill="white"/>
<path d="M73.7139 5.03972C76.4299 2.32375 79.7146 0.965764 83.568 0.965764C87.4215 0.965764 90.7062 2.32375 93.4221 5.03972C96.1381 7.75569 97.4961 11.0404 97.4961 14.8938C97.4961 18.7472 96.1381 22.0319 93.4221 24.7479C90.7062 27.4639 87.4215 28.8219 83.568 28.8219C79.7146 28.8219 76.4299 27.4639 73.7139 24.7479C70.998 22.0319 69.64 18.7472 69.64 14.8938C69.64 11.0404 70.998 7.75569 73.7139 5.03972ZM77.7531 24.9568C79.5405 25.9782 81.4788 26.4889 83.568 26.4889C85.6572 26.4889 87.5956 25.9782 89.383 24.9568C91.1704 23.9122 92.5748 22.4962 93.5962 20.7088C94.6408 18.9213 95.1631 16.983 95.1631 14.8938C95.1631 12.8046 94.6408 10.8663 93.5962 9.07885C92.5748 7.29142 91.1704 5.88701 89.383 4.86562C87.5956 3.82101 85.6572 3.29871 83.568 3.29871C81.4788 3.29871 79.5405 3.82101 77.7531 4.86562C75.9656 5.88701 74.5496 7.29142 73.505 9.07885C72.4836 10.8663 71.9729 12.8046 71.9729 14.8938C71.9729 16.983 72.4836 18.9213 73.505 20.7088C74.5496 22.4962 75.9656 23.9122 77.7531 24.9568ZM84.7867 13.6751C85.1349 14.0001 85.309 14.4063 85.309 14.8938C85.309 15.3813 85.1349 15.7991 84.7867 16.1473C84.4618 16.4723 84.0555 16.6348 83.568 16.6348C83.0806 16.6348 82.6627 16.4723 82.3145 16.1473C81.9895 15.7991 81.827 15.3813 81.827 14.8938C81.827 14.4063 81.9895 14.0001 82.3145 13.6751C82.6627 13.3269 83.0806 13.1528 83.568 13.1528C84.0555 13.1528 84.4618 13.3269 84.7867 13.6751Z" fill="white"/>
<path d="M132.316 8.52173C132.316 9.84489 131.991 11.0752 131.341 12.2127C130.714 13.3269 129.867 14.2206 128.799 14.8938C129.867 15.567 130.714 16.4723 131.341 17.6098C131.991 18.724 132.316 19.9427 132.316 21.2659V28.8219H129.983V21.2659C129.983 19.8267 129.473 18.608 128.451 17.6098C127.43 16.5884 126.199 16.0777 124.76 16.0777H106.793V28.8219H104.46V13.7099H124.76C126.199 13.7099 127.43 13.2108 128.451 12.2127C129.473 11.1913 129.983 9.96096 129.983 8.52173C129.983 7.0825 129.473 5.85219 128.451 4.8308C127.43 3.80941 126.199 3.29871 124.76 3.29871H104.46V0.965764H124.76C126.849 0.965764 128.625 1.70859 130.088 3.19425C131.573 4.6567 132.316 6.43252 132.316 8.52173Z" fill="white"/>
<path d="M140.162 26.4066H157.912C159.709 26.4066 161.151 25.8074 162.237 24.6092C163.135 23.5981 163.585 22.4935 163.585 21.2952C163.51 19.9846 163.042 18.8612 162.18 17.9251C161.095 16.7268 159.484 16.0715 157.35 15.9591H148.472V13.5439H157.855C159.728 13.5439 161.188 12.9634 162.237 11.8026C163.173 10.7167 163.603 9.5933 163.529 8.43247C163.529 7.2342 163.079 6.12954 162.18 5.11849C160.982 3.80788 159.26 3.15258 157.013 3.15258H139.881V0.737305H157.069C160.027 0.77475 162.312 1.69218 163.922 3.48959C165.27 4.94999 165.944 6.59761 165.944 8.43247C166.019 10.2299 165.382 11.8775 164.034 13.3754C163.435 14.0494 162.817 14.5549 162.18 14.8919C162.929 15.3413 163.529 15.8093 163.978 16.2961C165.251 17.6817 165.925 19.3293 166 21.239C166 23.1488 165.345 24.8151 164.034 26.2381C162.536 27.8857 160.552 28.747 158.08 28.8219H140.162V26.4066Z" fill="white"/>
</svg>
