<svg width="48" height="48" viewBox="0 0 48 48" fill="none" xmlns="http://www.w3.org/2000/svg">
<path d="M0.000102699 36L12 48H48.0001V16L32 0H0.000102699V36Z" fill="#0F62FF" fill-opacity="0.25"/>
<path d="M25.1521 24.4277C25.1521 27.1674 22.8939 29.3921 20.0963 29.3921C17.2988 29.3921 15.0405 27.1674 15.0405 24.4277C15.0405 21.6879 17.2988 19.4633 20.0963 19.4633C22.8939 19.4633 25.1521 21.6879 25.1521 24.4277ZM30.691 24.4277C30.691 27.003 29.5563 29.0962 28.1631 29.0962C26.77 29.0962 25.6352 27.003 25.6352 24.4277C25.6352 21.8523 26.77 19.7591 28.1631 19.7591C29.5563 19.7591 30.691 21.8414 30.691 24.4277ZM32.9605 24.4277C32.9605 26.74 32.5673 28.614 32.073 28.614C31.5786 28.614 31.1854 26.74 31.1854 24.4277C31.1854 22.1153 31.5786 20.2413 32.073 20.2413C32.5673 20.2413 32.9605 22.1153 32.9605 24.4277Z" fill="#0F62FF"/>
</svg>
