<svg width="28" height="28" viewBox="0 0 28 28" fill="none" xmlns="http://www.w3.org/2000/svg">
<path d="M15.0082 14.3741C15.0082 16.7714 13.0322 18.718 10.5843 18.718C8.1365 18.718 6.16052 16.7714 6.16052 14.3741C6.16052 11.9769 8.1365 10.0303 10.5843 10.0303C13.0322 10.0303 15.0082 11.9769 15.0082 14.3741ZM19.8547 14.3741C19.8547 16.6276 18.8618 18.4591 17.6428 18.4591C16.4238 18.4591 15.4309 16.6276 15.4309 14.3741C15.4309 12.1207 16.4238 10.2892 17.6428 10.2892C18.8618 10.2892 19.8547 12.1111 19.8547 14.3741ZM21.8405 14.3741C21.8405 16.3974 21.4964 18.0372 21.0639 18.0372C20.6313 18.0372 20.2873 16.3974 20.2873 14.3741C20.2873 12.3508 20.6313 10.7111 21.0639 10.7111C21.4964 10.7111 21.8405 12.3508 21.8405 14.3741Z" fill="white"/>
</svg>
