<svg width="152" height="92" viewBox="0 0 152 92" fill="none" xmlns="http://www.w3.org/2000/svg">
<path d="M0.000244141 22.9811L22.9812 0H151.925V61.283L121.283 91.9244H0.000244141V22.9811Z" fill="#0F62FF" fill-opacity="0.25"/>
<path fill-rule="evenodd" clip-rule="evenodd" d="M96.1982 45.4998C96.1982 44.447 95.3447 43.5936 94.292 43.5936H58.7086C57.6558 43.5936 56.8024 44.447 56.8024 45.4998C56.8024 46.5526 57.6558 47.4061 58.7086 47.4061H94.292C95.3447 47.4061 96.1982 46.5526 96.1982 45.4998Z" fill="#0F62FF"/>
<path fill-rule="evenodd" clip-rule="evenodd" d="M96.1982 32.7915C96.1982 31.7387 95.3447 30.8853 94.292 30.8853H58.7086C57.6558 30.8853 56.8024 31.7387 56.8024 32.7915C56.8024 33.8443 57.6558 34.6978 58.7086 34.6978H94.292C95.3447 34.6978 96.1982 33.8443 96.1982 32.7915Z" fill="#0F62FF"/>
<path fill-rule="evenodd" clip-rule="evenodd" d="M96.1982 58.2082C96.1982 57.1554 95.3447 56.3019 94.292 56.3019H58.7086C57.6558 56.3019 56.8024 57.1554 56.8024 58.2082C56.8024 59.261 57.6558 60.1144 58.7086 60.1144H94.292C95.3447 60.1144 96.1982 59.261 96.1982 58.2082Z" fill="#0F62FF"/>
</svg>
