<svg width="48" height="48" viewBox="0 0 48 48" fill="none" xmlns="http://www.w3.org/2000/svg">
<path d="M0.000102699 36L12 48H48.0001V16L32 0H0.000102699V36Z" fill="#0F62FF" fill-opacity="0.25"/>
<path d="M16.9026 23.4331C16.9026 23.4331 23.4129 20.691 25.6708 19.7255C26.5363 19.3393 29.4716 18.1034 29.4716 18.1034C29.4716 18.1034 30.8264 17.5628 30.7134 18.8758C30.6758 19.4166 30.3747 21.3089 30.0737 23.3558C29.6221 26.2524 29.1329 29.4192 29.1329 29.4192C29.1329 29.4192 29.0576 30.3075 28.4179 30.462C27.7782 30.6165 26.7244 29.9214 26.5363 29.7668C26.3857 29.651 23.7139 27.913 22.7355 27.0634C22.4721 26.8317 22.171 26.3683 22.7731 25.8276C24.1279 24.5531 25.746 22.9696 26.7244 21.9655C27.176 21.502 27.6276 20.4207 25.746 21.7338C23.0742 23.6262 20.44 25.4027 20.44 25.4027C20.44 25.4027 19.8378 25.7889 18.7089 25.4413C17.5799 25.0938 16.2628 24.6303 16.2628 24.6303C16.2628 24.6303 15.3597 24.051 16.9026 23.4331Z" fill="#0F62FF"/>
</svg>
