<svg width="48" height="48" viewBox="0 0 48 48" fill="none" xmlns="http://www.w3.org/2000/svg">
<path d="M0.000102699 12L12 0H48.0001V32L32 48H0.000102699V12Z" fill="#0F62FF" fill-opacity="0.25"/>
<path d="M31.9421 18.9339C31.4137 19.1614 30.8582 19.3199 30.2894 19.4054C30.5553 19.3598 30.9467 18.8806 31.1024 18.6867C31.3391 18.3941 31.5195 18.0602 31.6343 17.7018C31.6343 17.6752 31.6609 17.6371 31.6343 17.6181C31.6209 17.6108 31.6059 17.607 31.5907 17.607C31.5754 17.607 31.5604 17.6108 31.547 17.6181C30.9293 17.9529 30.2719 18.2085 29.5903 18.3787C29.5666 18.3859 29.5413 18.3866 29.5172 18.3805C29.4931 18.3745 29.4711 18.362 29.4536 18.3444C29.4005 18.2812 29.3434 18.2215 29.2826 18.1657C29.0046 17.9164 28.6892 17.7124 28.348 17.5611C27.8873 17.3719 27.3897 17.29 26.8928 17.3215C26.4107 17.352 25.9399 17.4814 25.5099 17.7018C25.0864 17.9341 24.7142 18.2497 24.4157 18.6296C24.1017 19.0207 23.875 19.4745 23.7508 19.9606C23.6484 20.4229 23.6368 20.9008 23.7166 21.3676C23.7166 21.4474 23.7166 21.4588 23.6482 21.4474C20.9393 21.0481 18.7167 20.0861 16.9007 18.0212C16.8209 17.9299 16.7791 17.9299 16.7145 18.0212C15.9243 19.2229 16.308 21.1242 17.2958 22.0635C17.4288 22.1889 17.5656 22.3106 17.7099 22.4247C17.257 22.3925 16.8152 22.2697 16.4106 22.0635C16.3346 22.014 16.2928 22.0406 16.289 22.1319C16.2782 22.2584 16.2782 22.3856 16.289 22.5122C16.3683 23.1185 16.607 23.693 16.9808 24.1767C17.3547 24.6604 17.8501 25.0361 18.4166 25.2653C18.5547 25.3245 18.6986 25.3691 18.8459 25.3984C18.4266 25.481 17.9966 25.4939 17.5732 25.4364C17.482 25.4174 17.4478 25.4668 17.482 25.5543C18.0405 27.0754 19.2524 27.5393 20.1415 27.7979C20.2631 27.8169 20.3846 27.8169 20.5214 27.8473C20.5214 27.8473 20.5214 27.8473 20.4986 27.8701C20.2365 28.3493 19.1765 28.6725 18.6902 28.8398C17.8025 29.1589 16.8561 29.2809 15.9167 29.1973C15.7685 29.1744 15.7343 29.1783 15.6963 29.1973C15.6583 29.2163 15.6963 29.2581 15.7381 29.2961C15.9281 29.4216 16.118 29.5319 16.3156 29.6384C16.9037 29.9595 17.5255 30.2145 18.1696 30.3989C21.5054 31.3192 25.2591 30.6423 27.7629 28.1515C29.7309 26.197 30.4224 23.5009 30.4224 20.801C30.4224 20.6983 30.5478 20.6375 30.6199 20.5842C31.1178 20.1959 31.5568 19.7374 31.9231 19.2229C31.9865 19.1462 32.0191 19.0485 32.0143 18.9491C32.0143 18.892 32.0143 18.9034 31.9421 18.9339Z" fill="#0F62FF"/>
</svg>
